@startuml
title GPS Hat Node Class Diagram
package sensor_msgs {
  class NavSatFix <<(M,#FFFF00)>>
  class NavSatStatus <<(M,#FFFF00)>>
}
package nav_msgs {
  class Odometry <<(M,#FFFF00)>>
}
package ros {
  class Publisher
}
package eros {
  class BaseNode
  class BaseNodeProcess
}

package ros_hats {
  namespace gps_utility {
    class UTMConversion
  }
  class GPSHatNode #Cyan {
      +const std::string BASE_NODE_NAME
      +const uint16_t MAJOR_RELEASE_VERSION
      +const uint16_t MINOR_RELEASE_VERSION
      +const uint16_t BUILD_NUMBER
      +const std::string FIRMWARE_DESCRIPTION
      +const eros::System::MainSystem DIAGNOSTIC_SYSTEM
      +const eros::System::SubSystem DIAGNOSTIC_SUBSYSTEM
      +const eros::System::Component DIAGNOSTIC_COMPONENT
      +GPSHatNodeProcess* get_process()
      +bool start()
      +eros::eros_diagnostic::Diagnostic finish_initialization()
      +bool run_loop1()
      +bool run_loop2()
      +bool run_loop3()
      +bool run_001hz()
      +bool run_01hz()
      +bool run_01hz_noisy()
      +bool run_1hz()
      +bool run_10hz()
      +thread_loop()
      +cleanup()
      +bool changenodestate_service(eros::srv_change_nodestate::Request& req, eros::srv_change_nodestate::Response& res)
      +system_commandAction_Callback(const eros::system_commandGoalConstPtr& goal)
      +command_Callback(const eros::command::ConstPtr& t_msg)
      -Publisher gps_data_pub
      -Publisher gps_pose_pub

      -GPSHatNodeProcess* process;
  }
  class GPSHatNodeProcess #Cyan {
      +eros::eros_diagnostic::Diagnostic finish_initialization()
      +reset()
      +eros::eros_diagnostic::Diagnostic update(double t_dt, double t_ros_time)
      +std::vector<eros::eros_diagnostic::Diagnostic> new_commandmsg(eros::command msg)
      +std::vector<eros::eros_diagnostic::Diagnostic> check_programvariables()
      +cleanup()
      +NavSatFix get_gps_data()
      +{static} NavSatFix convert(NavXIMUDriver::NavXIMUDriverContainer output)
      -NavXIMUDriver driver

  }
  class NavXIMUDriver #Cyan 
  BaseNode <|-- GPSHatNode
  BaseNodeProcess <|-- GPSHatNodeProcess
  GPSHatNode -> GPSHatNodeProcess
  GPSHatNodeProcess -> NavXIMUDriver
}
@enduml